<?xml version="1.0" encoding="UTF-8"?>
<svg id="Layer_1" data-name="Layer 1" xmlns="http://www.w3.org/2000/svg" viewBox="0 0 552.88 250.51">
  <defs>
    <style>
      .cls-1 {
        fill: #575757;
      }

      .cls-1, .cls-2 {
        stroke-width: 0px;
      }

      .cls-2 {
        fill: #6d9886;
      }
    </style>
  </defs>
  <path class="cls-2" d="M247.45,57.53l37.14,37.14c6.12,6.12,14.43,9.56,23.08,9.56h36.09c24.27,0,40.05,25.54,29.2,47.24h0c-6.28,12.57-3.82,27.75,6.12,37.68l49.95,49.95c16.79,16.79,45.31,10.61,53.65-11.62l68.09-181.58c8-21.34-7.77-44.11-30.57-44.11h-249.67c-29.08,0-43.65,35.16-23.08,55.73Z"/>
  <path class="cls-2" d="M164.44,11.27l171.77,171.77c24.24,24.24,7.07,65.67-27.2,65.67h0c-10.2,0-19.99-4.05-27.2-11.27L110.03,65.67C85.8,41.44,102.96,0,137.23,0h0c10.2,0,19.99,4.05,27.2,11.27Z"/>
  <g>
    <path class="cls-1" d="M.55,35.6c-.77-.77-.72-2.06.1-2.88l5.75-5.75c4.67-4.67,8.04-7.64,10.08-8.88,2.05-1.25,3.96-1.84,5.73-1.79,1.77.06,3.33.54,4.67,1.45,1.34.91,3.65,3.01,6.94,6.3l12.17,12.17c3.12,3.12,5.05,5.36,5.78,6.73.74,1.37,1.01,2.74.82,4.11s-.74,2.76-1.65,4.14c-.91,1.39-2.53,3.24-4.84,5.55l-10.72,10.72c-.82.82-2.11.87-2.88.1L.55,35.6ZM16.32,32.02l19.67,19.67c1.04,1.04,3.03.57,3.41-.93.07-.29.08-.55.02-.79-.2-.84-1.46-2.42-3.78-4.74l-13.5-13.5c-1.57-1.57-2.64-2.53-3.19-2.86-.55-.34-1.12-.42-1.71-.24-.11.03-.22.08-.34.14-1.26.62-1.52,2.32-.59,3.26Z"/>
    <path class="cls-1" d="M65.79,94.06l10.46-10.42c1.72-1.71,4.4-1.8,6-.21l1.38,1.37c1.61,1.6,1.52,4.3-.21,6.02l-.43.43c-1.72,1.72-1.82,4.42-.21,6.02l1,.99c1.6,1.59,4.28,1.5,6-.21l.05-.05c1.72-1.71,4.4-1.8,6-.21l1.02,1.02c1.61,1.6,1.52,4.3-.21,6.02h0c-1.72,1.72-1.82,4.42-.21,6.02l2.09,2.08c1.6,1.59,4.28,1.5,6-.21l1.14-1.14c1.72-1.71,4.4-1.8,6-.21l1.38,1.37c1.61,1.6,1.52,4.3-.21,6.02l-11.12,11.09c-1.72,1.71-4.4,1.8-6,.21l-30.12-29.99c-1.61-1.6-1.52-4.3.21-6.02Z"/>
    <path class="cls-1" d="M149.23,142.6l29.2,28.71c1.06,1.04,1,2.81-.14,3.92l-4.5,4.43c-.89.87-2.2,1.11-3.24.58l-1.57-.8c-2.75-1.4-5.56,2.35-3.38,4.5h0c1.06,1.04,1,2.81-.14,3.92l-3.62,3.57c-1.11,1.09-2.83,1.15-3.86.13l-29.2-28.71c-1.06-1.04-1-2.81.14-3.92l4.16-4.1c.87-.86,2.15-1.1,3.18-.61l2.89,1.38c2.76,1.31,5.48-2.41,3.32-4.53l-.87-.85c-1.06-1.04-1-2.81.14-3.92l3.62-3.57c1.11-1.09,2.83-1.15,3.86-.13Z"/>
    <path class="cls-1" d="M215.4,206.97l-6.6,6.65c-.9.91-2.33.96-3.17.11l-1.29-1.3c-1.32-1.33-2.28-2.05-2.89-2.16s-1.21.13-1.8.72c-.64.64-.88,1.38-.72,2.2s.73,1.73,1.72,2.73c1.27,1.28,2.41,2.06,3.42,2.34.99.29,2.77.07,5.32-.67,7.33-2.12,12.45-2.95,15.36-2.5,2.9.46,6.22,2.57,9.95,6.33,2.71,2.74,4.37,5.1,4.97,7.08.6,1.98.37,4.4-.71,7.24-1.08,2.84-2.91,5.57-5.5,8.18-2.84,2.86-5.76,4.8-8.77,5.81s-5.6,1.05-7.77.11c-2.17-.94-4.68-2.85-7.54-5.73l-.99-1c-.83-.84-.78-2.24.11-3.14l6.6-6.65c.9-.91,2.33-.96,3.17-.11l3.1,3.13c1.43,1.44,2.48,2.23,3.17,2.36.68.13,1.38-.16,2.08-.87s.97-1.5.8-2.37c-.17-.87-.77-1.82-1.79-2.85-2.24-2.26-4.03-3.41-5.38-3.45-1.36-.02-4.17.49-8.42,1.52-4.27,1.01-7.2,1.58-8.79,1.7s-3.32-.19-5.18-.94c-1.86-.75-3.81-2.14-5.83-4.18-2.91-2.94-4.65-5.49-5.2-7.66-.55-2.16-.31-4.53.71-7.09,1.02-2.56,2.79-5.11,5.31-7.65,2.75-2.78,5.52-4.72,8.29-5.84,2.77-1.12,5.1-1.36,6.99-.72,1.89.64,4.35,2.48,7.37,5.54h0c.83.84.78,2.24-.11,3.14Z"/>
  </g>
</svg>